<?xml version="1.0" encoding="iso-8859-1"?>
<!-- Generator: Adobe Illustrator 19.0.0, SVG Export Plug-In . SVG Version: 6.00 Build 0)  -->
<svg version="1.1" id="Layer_1" xmlns="http://www.w3.org/2000/svg" xmlns:xlink="http://www.w3.org/1999/xlink" x="0px" y="0px"
	 viewBox="0 0 512 512" style="enable-background:new 0 0 512 512;" xml:space="preserve">
<path style="fill:#F8F8F9;" d="M512,85.333C512,38.205,473.795,0,426.667,0H85.333C38.205,0,0,38.205,0,85.333v341.333
	C0,473.795,38.205,512,85.333,512h341.333C473.795,512,512,473.795,512,426.667V85.333z"/>
<path style="fill:#EDEDED;" d="M426.667,0H256v512h170.667C473.795,512,512,473.795,512,426.667V85.333
	C512,38.205,473.795,0,426.667,0z"/>
<g>
	<polygon style="fill:#E02753;" points="184.889,241.778 234.667,42.667 277.333,42.667 327.111,241.778 327.111,369.778 
		184.889,369.778 	"/>
	<polygon style="fill:#E02753;" points="184.889,241.778 234.667,42.667 277.333,42.667 327.111,241.778 327.111,369.778 
		184.889,369.778 	"/>
</g>
<polygon style="fill:#C5142C;" points="327.111,241.778 277.333,42.667 256,42.667 256,369.778 327.111,369.778 "/>
<path style="fill:#88888F;" d="M486.45,24.464L256,341.333L25.55,24.464C9.786,39.947,0,61.493,0,85.333v341.333
	C0,473.795,38.205,512,85.333,512h341.333C473.795,512,512,473.795,512,426.667V85.333C512,61.493,502.214,39.947,486.45,24.464z"/>
<path style="fill:#E07188;" d="M184.889,0c0,39.273,31.838,71.111,71.111,71.111S327.111,39.273,327.111,0"/>
<path style="fill:#E02753;" d="M256,0v71.111c39.273,0,71.111-31.838,71.111-71.111H256z"/>
<path style="fill:#797781;" d="M486.45,24.464L256,341.333V512h170.667C473.795,512,512,473.795,512,426.667V85.333
	C512,61.493,502.214,39.947,486.45,24.464z"/>
<g>
	<polygon style="fill:#58575D;" points="256,341.333 234.667,312 234.667,512 277.333,512 277.333,312 	"/>
	<path style="fill:#58575D;" d="M348.446,448c-7.599,0-14.741-2.958-20.115-8.331c-11.09-11.091-11.09-29.136,0-40.226
		c5.372-5.372,12.516-8.331,20.113-8.331c7.6,0,14.744,2.961,20.117,8.336c11.086,11.086,11.086,29.131-0.004,40.222
		C363.193,445.039,356.048,448,348.446,448z"/>
</g>
<g>
</g>
<g>
</g>
<g>
</g>
<g>
</g>
<g>
</g>
<g>
</g>
<g>
</g>
<g>
</g>
<g>
</g>
<g>
</g>
<g>
</g>
<g>
</g>
<g>
</g>
<g>
</g>
<g>
</g>
</svg>
